<svg width="27" height="17" viewBox="0 0 27 17" fill="none" xmlns="http://www.w3.org/2000/svg">
<path d="M0.591622 0.628227C0.970553 0.225974 1.48442 0 2.02023 0C2.55604 0 3.06991 0.225974 3.44884 0.628227L13.4511 11.2494L23.4534 0.628227C23.8345 0.237374 24.3449 0.0211 24.8747 0.0259888C25.4045 0.0308776 25.9113 0.256537 26.286 0.654364C26.6606 1.05219 26.8731 1.59035 26.8778 2.15295C26.8824 2.71554 26.6787 3.25754 26.3106 3.66222L14.8797 15.8003C14.5008 16.2026 13.9869 16.4286 13.4511 16.4286C12.9153 16.4286 12.4014 16.2026 12.0225 15.8003L0.591622 3.66222C0.212807 3.25985 0 2.71418 0 2.14522C0 1.57627 0.212807 1.0306 0.591622 0.628227Z" fill="black"/>
</svg>
